<?xml version="1.0" encoding="UTF-8" standalone="no"?>
<!DOCTYPE svg PUBLIC "-//W3C//DTD SVG 1.1//EN" "http://www.w3.org/Graphics/SVG/1.1/DTD/svg11.dtd">
<svg width="128" height="128" viewBox="0 0 128 128" version="1.1" xmlns="http://www.w3.org/2000/svg" xmlns:xlink="http://www.w3.org/1999/xlink" xml:space="preserve" xmlns:serif="http://www.serif.com/" style="fill-rule:evenodd;clip-rule:evenodd;stroke-linejoin:round;stroke-miterlimit:2;">
    <path d="M9.93,67.23C9.93,67.23 13.45,61.53 18.94,55.47C20.95,53.26 24.01,49.98 24.15,48.71C24.29,47.44 22.04,40.62 20.91,34.98C19.97,30.27 19.5,24.28 21.19,22.45C22.88,20.62 32.42,22.49 38.08,25.27C43.88,28.11 46.85,30.61 47.65,30.62C48.65,30.63 54.55,25.97 63.7,26.12C72.85,26.27 79.33,30.48 80.59,30.48C81.85,30.48 85.93,27.44 91.57,24.5C98.19,21.05 105.93,20.77 107.48,21.9C109.03,23.03 108.04,31.19 106.92,35.41C105.48,40.8 103.05,46.88 103.19,48.01C103.33,49.14 105.79,50.33 110.72,55.82C114.61,60.16 119.38,68.63 119.38,68.63L66.67,79.48L9.93,67.23Z" style="fill:rgb(176,176,176);fill-rule:nonzero;"/>
    <path d="M5.71,75.12C5.71,75.96 14.44,80.75 14.44,80.75C14.44,80.75 4.02,84.55 4.02,85.25C4.02,86.38 19.93,102 35.55,107.35C48.57,111.81 75.77,117.34 97.49,106.15C116.35,96.44 122.55,88.9 122.55,87.78C122.55,86.66 114.1,82.15 114.1,82.15C114.1,82.15 122.97,76.1 122.97,75.25C122.97,74.41 119.45,68.21 118.32,66.38C117.19,64.55 113.82,59.2 112.41,58.64C111,58.08 84.68,47.1 75.95,53.15C71.39,56.31 70.74,59.91 70.74,63.43C70.74,69.63 71.3,74.97 71.3,74.97C71.3,74.97 69.19,72.65 65.53,72.58C62.08,72.51 60.11,74.48 60.11,74.48C60.11,74.48 61.17,65.82 61.03,62.58C60.89,59.34 60.19,55.26 54.55,52.16C46.48,47.72 26.36,55.78 20.2,59.27C15.98,61.66 11.33,64.83 9.78,67.22C8.23,69.61 5.71,74.13 5.71,75.12Z" style="fill:rgb(222,222,222);fill-rule:nonzero;"/>
    <path d="M30.63,44.33C30.95,44.33 33.43,41.79 36.07,39.64C38.85,37.37 41.98,35.09 41.98,34.85C41.98,34.38 30.34,25.84 27.06,28.37C23.78,30.9 29.88,44.33 30.63,44.33Z" style="fill:rgb(93,98,104);fill-rule:nonzero;"/>
    <path d="M86.66,34.66C86.63,34.99 89.86,36.87 92.39,39.16C94.92,41.46 97.41,43.81 97.74,43.76C98.4,43.67 104.03,30.9 101.4,28.65C98.77,26.4 86.75,33.73 86.66,34.66Z" style="fill:rgb(93,98,104);fill-rule:nonzero;"/>
    <path d="M43.02,102.52C44.84,101.81 44.52,94.92 47.62,88.25C50.72,81.59 54.28,78.3 56.35,76.89C58.41,75.48 60.01,75.01 61.14,73.51C62.27,72.01 62.15,65.03 61.05,62.58C59.55,59.25 55.42,54.65 47.25,55.21C39.08,55.77 32.33,64.31 28.57,67.88C24.82,71.45 19.09,75.29 19.18,82.61C19.27,89.93 25.37,95 29.13,97.72C32.88,100.46 40.39,103.55 43.02,102.52Z" style="fill:rgb(70,76,79);fill-rule:nonzero;"/>
    <path d="M71.17,75.02C69.48,73.89 70.14,68.83 70.23,66.48C70.32,64.13 71.26,58.13 77.64,56.44C84.02,54.75 87.4,57.28 91.25,59.91C95.1,62.54 99.04,66.06 101.76,67.98C107.86,72.3 113.02,77.74 111.71,83.56C110.4,89.38 106.6,93.01 100.73,97.17C94.63,101.49 89,105.05 87.03,103.83C85.06,102.61 85.72,92.57 81.3,85.62C76.9,78.68 73.15,76.34 71.17,75.02Z" style="fill:rgb(70,76,79);fill-rule:nonzero;"/>
    <path d="M64.84,82.15C59.16,82.3 56.55,85.98 56.49,89.19C56.4,93.74 58.46,94.63 59.4,95.2C60.57,95.9 62.27,96.44 61.46,97.97C60.62,99.57 59.82,100.22 56.35,99.94C54.2,99.77 53.34,97.66 51.19,98.3C48.33,99.14 50.91,103.87 57.29,104.12C63.25,104.35 65.17,101.3 65.17,101.3C65.17,101.3 67.38,104.35 72.77,104.02C78.3,103.68 81.17,98.81 77.98,97.87C75.69,97.2 76.06,100.03 72.87,100.17C70.57,100.27 69.36,99.59 68.51,98.48C68.04,97.87 68.09,96.42 68.74,95.95C69.4,95.48 72.57,94.26 72.68,89.85C72.77,86.14 70,82.01 64.84,82.15Z" style="fill:rgb(47,47,47);fill-rule:nonzero;"/>
    <path d="M54.47,67.49C54.47,70.9 52.97,73.85 49.89,73.66C47.37,73.51 45.22,71.17 45.31,67.49C45.4,64.08 47.33,61.79 49.86,61.79C52.39,61.79 54.47,64.08 54.47,67.49Z" style="fill:rgb(0,1,1);fill-rule:nonzero;"/>
    <path d="M85.77,68.08C85.64,71.49 85.02,74.84 81.45,74.51C78.93,74.28 77.14,71.98 77.37,68.3C77.58,64.9 79.34,62.45 81.87,62.55C84.4,62.63 85.89,64.67 85.77,68.08Z" style="fill:rgb(0,1,1);fill-rule:nonzero;"/>
</svg>
